# xmcd
#
# Track frame offsets: 
#        150
#        12469
#        24573
#        37081
#        50843
#        61628
#        75759
#        87034
#        100344
#        122646
#        143635
#        155556
#        168860
#        181437
#        202193
#        211421
#        223758
#        242154
#        259126
#        276797
#        290482
#        308273
#
# Disc length: 4337 seconds
#
# Revision: 4
# Processed by: cddbd v1.5.2PL0 Copyright (c) Steve Scherf et al.
# Submitted via: ExactAudioCopy v1.0b4
#
DISCID=3610ef16
DTITLE=Various Artist - Disk 6 - The Best Of The Blues [CD 6)
DYEAR=2000
DGENRE=Blues
TTITLE0=Billy Boy Arnold - I Wish You Would
TTITLE1=John Lee Hooker - Everybody Rockin'
TTITLE2=Jimmy Witherspoon - Everyday (I Have The Blues)
TTITLE3=Howlin' Wolf - Smokestack Lightnin'
TTITLE4=Elmore James - One Way Out
TTITLE5=Otis Rush - I Can't Quit You Baby
TTITLE6=Frank Frost - Jelly Roll King
TTITLE7=Magic Sam - All Your Love
TTITLE8=Luther Allison - Sweet Home Chicago
TTITLE9=Muddy Waters, Willie Dixon, Budy Guy - Wee, Wee Baby
TTITLE10=Buddy Guy - My Love Is Real
TTITLE11=John Lee Hooker - One Bourbon, One Scotch, One Beer
TTITLE12=Muddy Waters - Can't Get No Grindin' (What's The Matter With 
TTITLE12=The Mill)
TTITLE13=Lightning Hopkins - Morning Blues
TTITLE14=Clarence 'Gatemouth' Brown - Gate's Salty Blues
TTITLE15=Eric Clapton, Howlin' Wolf - Highway 49
TTITLE16=Albert King - Don't Burn Down The Bridge
TTITLE17=Robert Cray - Who's Been Talkin'
TTITLE18=Champion Jack Dupree - My Baby's Coming Home
TTITLE19=Eddie Taylor - Bad Boy
TTITLE20=John Mayall's Blues Breakers feat. Eric Clapton - Telephone B
TTITLE20=lues
TTITLE21=Ike and Tina Turner feat. Ike Turner - I Smell Trouble
EXTD=The Ultimate Blues Box [CD 6 of 6)
EXTT0=
EXTT1=
EXTT2=
EXTT3=
EXTT4=
EXTT5=
EXTT6=
EXTT7=
EXTT8=
EXTT9=
EXTT10=
EXTT11=
EXTT12=
EXTT13=
EXTT14=
EXTT15=
EXTT16=
EXTT17=
EXTT18=
EXTT19=
EXTT20=
EXTT21=
PLAYORDER=
